<svg aria-hidden="true" style="position: absolute; width: 0; height: 0; overflow: hidden;" version="1.1" xmlns="http://www.w3.org/2000/svg" xmlns:xlink="http://www.w3.org/1999/xlink">
<defs>
<symbol id="icon-avatar" viewBox="0 0 32 32">
<path fill="#fff" style="fill: var(--color1, #fff)" d="M32 16c0 8.837-7.163 16-16 16s-16-7.163-16-16c0-8.837 7.163-16 16-16s16 7.163 16 16z"></path>
<path fill="#d0cfcf" style="fill: var(--color2, #d0cfcf)" d="M15.978 32c-8.833 0.001-16.013-7.204-15.978-16.032 0.035-8.846 7.188-15.984 16.002-15.968 8.848 0.016 15.972 7.128 15.998 15.971 0.026 8.854-7.146 16.029-16.022 16.029zM5.14 26.311c5.9 6.293 15.962 6.176 21.701 0.004-0.121-0.14-0.236-0.29-0.369-0.423-0.597-0.601-1.305-1.052-2.069-1.393-0.999-0.445-2.028-0.823-3.037-1.246-0.478-0.201-0.956-0.412-1.405-0.669-0.513-0.292-0.845-0.731-0.86-1.358-0.012-0.506-0.028-1.013-0.051-1.519-0.016-0.329 0.074-0.611 0.279-0.876 0.778-1.008 1.184-2.152 1.191-3.43 0.001-0.201 0.085-0.323 0.236-0.442 0.337-0.267 0.637-0.583 0.727-1.018 0.097-0.467 0.166-0.943 0.211-1.419 0.036-0.388-0.006-0.766-0.499-0.806 0.069-0.585 0.16-1.126 0.192-1.669 0.064-1.109-0.056-2.193-0.615-3.184-0.481-0.853-1.207-1.321-2.199-1.359-0.132-0.005-0.267-0.045-0.392-0.089-1.257-0.432-2.556-0.564-3.85-0.306-2.519 0.502-4.027 2.668-3.724 5.246 0.053 0.445 0.137 0.886 0.212 1.363-0.346 0.018-0.549 0.217-0.542 0.546 0.018 0.978 0.036 1.967 0.902 2.658 0.216 0.173 0.272 0.39 0.294 0.645 0.031 0.366 0.073 0.733 0.132 1.096 0.137 0.852 0.634 1.533 1.080 2.24 0.11 0.175 0.2 0.396 0.208 0.599 0.022 0.56 0 1.122-0.012 1.684-0.012 0.563-0.271 0.997-0.731 1.309-0.215 0.146-0.434 0.293-0.671 0.393-0.566 0.241-1.141 0.463-1.717 0.68-1.193 0.449-2.375 0.922-3.435 1.647-0.444 0.304-0.855 0.642-1.186 1.095z"></path>
</symbol>
</defs>
</svg>
